<?xml version="1.0" encoding="UTF-8" standalone="no"?>
<svg
   width="14.807419"
   height="14.821707"
   version="1.1"
   id="svg1"
   sodipodi:docname="icon.svg"
   inkscape:version="1.4 (e7c3feb1, 2024-10-09)"
   xmlns:inkscape="http://www.inkscape.org/namespaces/inkscape"
   xmlns:sodipodi="http://sodipodi.sourceforge.net/DTD/sodipodi-0.dtd"
   xmlns="http://www.w3.org/2000/svg"
   xmlns:svg="http://www.w3.org/2000/svg">
  <sodipodi:namedview
     id="namedview1"
     pagecolor="#ffffff"
     bordercolor="#000000"
     borderopacity="0.25"
     inkscape:showpageshadow="2"
     inkscape:pageopacity="0.0"
     inkscape:pagecheckerboard="0"
     inkscape:deskcolor="#d1d1d1"
     inkscape:zoom="25.330212"
     inkscape:cx="5.0927327"
     inkscape:cy="4.6189902"
     inkscape:window-width="1336"
     inkscape:window-height="683"
     inkscape:window-x="0"
     inkscape:window-y="38"
     inkscape:window-maximized="0"
     inkscape:current-layer="svg1" />
  <defs
     id="defs1">
    <linearGradient
       id="swatch1"
       inkscape:swatch="solid">
      <stop
         style="stop-color:#000000;stop-opacity:1;"
         offset="0"
         id="stop1" />
    </linearGradient>
  </defs>
  <path
     id="path1"
     style="display:inline;stroke-width:0.954712;fill:#8eef97;fill-opacity:1"
     d="M 0 1.4550781 L 0 3.3652344 L 7.6367188 3.3652344 L 7.6367188 1.4550781 L 0 1.4550781 z M 0 5.2753906 L 0 7.1835938 L 1.9101562 7.1835938 L 1.9101562 5.2753906 L 0 5.2753906 z M 3.8183594 5.2753906 L 3.8183594 7.1835938 L 7.6367188 7.1835938 L 7.6367188 5.2753906 L 3.8183594 5.2753906 z M 10.501953 6.2578125 L 10.501953 11.957031 L 8.5917969 11.957031 L 11.457031 14.822266 L 14.320312 11.957031 L 12.412109 11.957031 L 12.412109 6.2578125 L 10.501953 6.2578125 z M 0 9.09375 L 0 11.001953 L 7.6367188 11.001953 L 7.6367188 9.09375 L 0 9.09375 z M 0 12.912109 L 0 14.822266 L 3.8183594 14.822266 L 3.8183594 12.912109 L 0 12.912109 z M 5.7285156 12.912109 L 5.7285156 14.822266 L 7.6367188 14.822266 L 7.6367188 12.912109 L 5.7285156 12.912109 z " />
  <path
     style="display:inline;fill:#8eef97;stroke-width:1.57958;paint-order:stroke fill markers"
     d="M 11.081855,1.0777465 V 2.7622256 H 9.3973765 V 3.724785 h 1.6844785 v 1.6875642 h 0.96256 V 3.724785 h 1.68448 V 2.7622256 h -1.68448 V 1.0777465 Z"
     id="path9" />
</svg>
